<?xml version="1.0" encoding="UTF-8" standalone="no"?>
<!-- Created with Inkscape (http://www.inkscape.org/) -->
<svg
   xmlns:dc="http://purl.org/dc/elements/1.1/"
   xmlns:cc="http://creativecommons.org/ns#"
   xmlns:rdf="http://www.w3.org/1999/02/22-rdf-syntax-ns#"
   xmlns:svg="http://www.w3.org/2000/svg"
   xmlns="http://www.w3.org/2000/svg"
   xmlns:sodipodi="http://sodipodi.sourceforge.net/DTD/sodipodi-0.dtd"
   xmlns:inkscape="http://www.inkscape.org/namespaces/inkscape"
   width="200"
   height="200"
   id="svg2"
   sodipodi:version="0.32"
   inkscape:version="0.46"
   version="1.0"
   sodipodi:docname="Polish tv rating system 18 (2011).svg"
   inkscape:output_extension="org.inkscape.output.svg.inkscape">
  <defs
     id="defs4">
    <inkscape:perspective
       sodipodi:type="inkscape:persp3d"
       inkscape:vp_x="0 : 100 : 1"
       inkscape:vp_y="0 : 1000 : 0"
       inkscape:vp_z="200 : 100 : 1"
       inkscape:persp3d-origin="100 : 66.666667 : 1"
       id="perspective9" />
  </defs>
  <sodipodi:namedview
     id="base"
     pagecolor="#ffffff"
     bordercolor="#666666"
     borderopacity="1.0"
     gridtolerance="10000"
     guidetolerance="10"
     objecttolerance="10"
     inkscape:pageopacity="0.0"
     inkscape:pageshadow="2"
     inkscape:zoom="1.979899"
     inkscape:cx="137.4022"
     inkscape:cy="102.72928"
     inkscape:document-units="px"
     inkscape:current-layer="layer1"
     showgrid="false"
     inkscape:window-width="1280"
     inkscape:window-height="712"
     inkscape:window-x="-4"
     inkscape:window-y="-4" />
  <metadata
     id="metadata7">
    <rdf:RDF>
      <cc:Work
         rdf:about="">
        <dc:format>image/svg+xml</dc:format>
        <dc:type
           rdf:resource="http://purl.org/dc/dcmitype/StillImage" />
      </cc:Work>
    </rdf:RDF>
  </metadata>
  <g
     inkscape:label="Layer 1"
     inkscape:groupmode="layer"
     id="layer1"
     transform="translate(-124.44924,-389.57265)">
    <path
       style="fill:#d54e4d;fill-opacity:1;stroke:none;stroke-width:112.40000153000000000;stroke-linecap:butt;stroke-linejoin:round;stroke-miterlimit:4;stroke-opacity:1"
       d="M 150.9773,389.57265 C 136.32484,389.56924 124.44582,401.44826 124.44924,416.10071 L 124.44924,563.05935 C 124.45398,577.70605 136.33062,589.57607 150.9773,589.57265 L 297.93593,589.57265 C 312.57688,589.56791 324.4445,577.70029 324.44924,563.05935 L 324.44924,416.10071 C 324.45265,401.45404 312.58263,389.5774 297.93593,389.57265 L 150.9773,389.57265 z"
       id="rect2383"
       sodipodi:nodetypes="ccccccccc" />
    <path
       style="opacity:1;fill:#ffffff;fill-opacity:1;stroke:none;stroke-width:41.74497223;stroke-miterlimit:4;stroke-dasharray:none;stroke-opacity:1"
       d="M 270.2383,446.87943 C 251.40723,447.36865 235.60643,460.52735 230.70705,478.06693 C 230.70705,478.06693 141.37892,478.06693 141.37892,478.06693 C 141.37892,478.06693 141.37892,532.27005 141.37892,532.27005 C 141.37892,532.27005 162.31642,532.27005 162.31642,532.27005 C 162.31642,532.27005 162.31642,501.06693 162.31642,501.06693 C 162.31642,501.06693 180.3633,501.06693 180.3633,501.06693 C 180.3633,501.06693 180.3633,532.27005 180.3633,532.27005 C 180.3633,532.27005 201.28517,532.27005 201.28517,532.27005 C 201.28517,532.27005 201.28517,501.06693 201.28517,501.06693 C 201.28517,501.06693 230.70705,501.06693 230.70705,501.06693 C 235.70046,518.94311 252.00824,532.27005 271.31642,532.27005 C 294.58459,532.27006 313.51954,512.91583 313.51955,489.56693 C 313.51954,466.21802 294.58458,446.87943 271.31642,446.87943 C 270.95286,446.87943 270.59968,446.87004 270.2383,446.87943 z M 271.31642,469.37943 C 282.21433,469.37943 291.01955,478.1987 291.01955,489.56693 C 291.01955,500.93515 282.21432,509.77005 271.31642,509.77005 C 260.41853,509.77006 251.62892,500.93515 251.62892,489.56693 C 251.62893,478.1987 260.41852,469.37943 271.31642,469.37943 z"
       id="rect3158"
       sodipodi:nodetypes="cccccccccccsssccsssc" />
  </g>
</svg>
